<?xml version="1.0" encoding="UTF-8" standalone="no"?>
<svg
   xmlns:dc="http://purl.org/dc/elements/1.1/"
   xmlns:cc="http://creativecommons.org/ns#"
   xmlns:rdf="http://www.w3.org/1999/02/22-rdf-syntax-ns#"
   xmlns:svg="http://www.w3.org/2000/svg"
   xmlns="http://www.w3.org/2000/svg"
   id="svg8"
   version="1.1"
   viewBox="0 0 39.687499 39.687501"
   height="150"
   width="150">
  <defs
     id="defs2" />
  <metadata
     id="metadata5">
    <rdf:RDF>
      <cc:Work
         rdf:about="">
        <dc:format>image/svg+xml</dc:format>
        <dc:type
           rdf:resource="http://purl.org/dc/dcmitype/StillImage" />
        <dc:title></dc:title>
      </cc:Work>
    </rdf:RDF>
  </metadata>
  <g
     transform="translate(0,-257.31248)"
     id="layer1">
    <path
       id="path3723"
       transform="matrix(0.26458333,0,0,0.26458333,0,257.31248)"
       d="m 75.25,-0.25 c -41.421356,0 -75,33.578644 -75,75 0,41.42136 33.578644,75 75,75 41.42136,0 75,-33.57864 75,-75 0,-30.42519 -18.11678,-56.618978 -44.15114,-68.382147 -13.083927,22.153909 0,0 -13.083927,22.153909 C 111.63366,35.743374 124.83402,53.830136 124.83398,75 124.83403,102.52257 102.52257,124.83403 75,124.83398 47.47743,124.83403 25.165965,102.52257 25.166016,75 25.165962,47.477428 47.477428,25.165962 75,25.166016 75.25,-0.25 75.25,-0.25 75.25,-0.25"
       style="fill:#000000;stroke:#000000;stroke-width:0.49999997;stroke-opacity:1;fill-opacity:1" />
  </g>
</svg>
